<?xml version="1.0" standalone="no"?><!DOCTYPE svg PUBLIC "-//W3C//DTD SVG 1.1//EN" "http://www.w3.org/Graphics/SVG/1.1/DTD/svg11.dtd"><svg t="1522041595878" class="icon" style="" viewBox="0 0 1024 1024" version="1.1" xmlns="http://www.w3.org/2000/svg" p-id="1015" xmlns:xlink="http://www.w3.org/1999/xlink" width="200" height="200"><defs><style type="text/css"></style></defs><path d="M512.3 952.6h351.5s-17.2-356.9-252.7-412.5c-64.1-7-92.3-4.2-92.3-4.2v0.4c-1.3-0.1-3.4-0.2-6.5-0.3v416.6z" fill="#555555" p-id="1016"></path><path d="M512.4 952.2H160.8S178 595.1 413.6 539.5c64.2-7 92.3-4.2 92.3-4.2v0.4c1.3-0.1 3.4-0.2 6.5-0.3v416.8z" fill="#333333" p-id="1017"></path><path d="M260.6 279.1H510v539.7H260.6V279.1z" fill="#222222" p-id="1018"></path><path d="M510 279.1h249.4v539.7H510V279.1z" fill="#333333" p-id="1019"></path><path d="M437.7 636.3l146 17v149.9l-75 23.8-71-17V636.3z" fill="#FFDDB8" p-id="1020"></path><path d="M437.7 648.7h146v45.1l-146 88V648.7z" fill="#706054" p-id="1021"></path><path d="M311 554.2c39.9 78 128.7 134 199 130.6V154.4c-124.6 0.2-215.1 119.1-215.1 265.6 0 49.3-4.1 94.6 16.1 134.2z" fill="#7F7166" p-id="1022"></path><path d="M709 554.2c-39.8 78-128.4 134-198.6 130.6V154.4c124.4 0.2 214.7 119.1 214.7 265.6 0 49.3 4.1 94.6-16.1 134.2z" fill="#FFDDB8" p-id="1023"></path><path d="M510 68.2c-126 0-253 137-272.1 244.9-9.8 55.6-24.9 333.5-31.7 451.2 7.2 45.8 31.7 63.5 31.7 63.5L510 945.7V730.3c-78.9 0-240.4-90.7-240.4-90.7s55.5-56.9 79.4-222.2c7.2-72.5 99-140.6 161-140.6V68.2z" fill="#333333" p-id="1024"></path><path d="M509 68.2c126 0 253 137 272.1 244.9 9.8 55.6 24.9 333.5 31.7 451.2-7.2 45.8-31.7 63.5-31.7 63.5L509 945.7V730.3c78.9 0 240.4-90.7 240.4-90.7s-55.5-56.9-79.4-222.2c-7.2-72.5-99-140.6-161-140.6V68.2z" fill="#555555" p-id="1025"></path><path d="M598.8 308l40.5 40.5-215.8 215.8-40.5-40.5L598.8 308z" fill="#E25656" p-id="1026"></path><path d="M423.5 307l215.7 215.8-40.5 40.5L383 347.5l40.5-40.5z" fill="#E25656" p-id="1027"></path><path d="M621.1 548.9c0 40.1-48.2 72.6-107.7 72.6S405.7 589 405.7 548.9c56.4 57.4 156 57.5 215.4 0z" fill="#FFFFFF" p-id="1028"></path></svg>