<?xml version="1.0" standalone="no"?><!DOCTYPE svg PUBLIC "-//W3C//DTD SVG 1.1//EN" "http://www.w3.org/Graphics/SVG/1.1/DTD/svg11.dtd"><svg t="1522112298904" class="icon" style="" viewBox="0 0 1024 1024" version="1.1" xmlns="http://www.w3.org/2000/svg" p-id="17411" xmlns:xlink="http://www.w3.org/1999/xlink" width="500" height="500"><defs><style type="text/css"></style></defs><path d="M573.186 433.947q-40.62 16.726-74.468 44.602t-58.539 63.717-38.229 78.451-13.539 89.602q0 41.416 10.752 79.248t29.867 71.283h-21.504q-23.098 0-53.761-1.593t-63.318-4.381-64.912-6.372-58.539-7.567-44.602-7.965-23.097-7.965q-8.761-6.372-13.141-39.425t3.584-84.823q3.186-19.912 13.141-32.655t24.292-21.903 31.859-14.735 35.841-10.752 35.443-11.151 31.461-14.735q16.726-10.355 25.884-20.31t13.142-19.513 3.983-19.912-0.796-23.098q-1.593-18.318-12.743-29.071t-24.69-21.903q-6.372-5.575-11.549-15.532t-9.159-20.31q-3.982-11.947-7.965-24.69-5.575-1.593-11.151-5.575-4.778-3.982-10.355-11.151t-9.557-20.707-3.186-24.69 4.778-19.912q3.186-8.761 10.355-16.726 0-30.265 3.186-60.532 3.186-25.487 11.151-54.955t24.69-52.567q15.929-22.3 34.248-36.239t38.229-21.903 39.425-10.752 37.832-2.788q23.098 0 45.796 5.177t42.61 13.938 35.443 19.912 24.292 22.3q20.708 25.487 30.265 56.151t13.539 58.539q3.983 31.859 3.983 64.513 5.575 3.982 8.761 10.355 3.186 5.575 5.177 14.336t0.398 21.504q-1.593 17.522-6.771 27.478t-11.549 15.532q-7.168 6.372-15.133 8.761-1.593 4.778-3.186 10.355l-3.983 11.151q-1.593 5.575-3.983 11.947zM687.080 459.433q51.771 0 97.567 19.912t79.645 54.159 53.761 80.045 19.912 97.567-19.912 97.567-53.761 80.045-79.645 53.761-97.567 19.513q-52.567 0-98.362-19.513t-79.645-53.761-53.761-80.045-19.912-97.567 19.912-97.567 53.761-80.045 79.645-54.159 98.362-19.912zM833.629 661.735q4.778-15.929-4.38-29.071t-24.292-18.717-30.265-0.796-22.3 24.69q-3.982 13.539-7.567 25.088t-7.168 24.292-8.761 27.478-13.141 33.849q-7.965 20.708-22.7 19.513t-22.7-17.123q-8.761-15.929-16.327-34.248t-14.735-35.841-12.743-31.858-9.557-23.098q-6.372-12.743-21.106-14.337t-28.672 4.38-23.098 18.717-2.788 27.877q5.575 15.929 12.743 35.841t15.133 40.62 15.133 40.62 12.743 34.248q11.947 30.265 36.239 45.398t50.973 15.929 50.973-11.947 35.443-38.229q8.761-20.708 17.92-43.407t17.522-44.204 15.532-41.416 11.947-34.248z" p-id="17412" fill="#ffffff"></path></svg>