<?xml version="1.0" standalone="no"?><!DOCTYPE svg PUBLIC "-//W3C//DTD SVG 1.1//EN" "http://www.w3.org/Graphics/SVG/1.1/DTD/svg11.dtd"><svg t="1522207274900" class="icon" style="" viewBox="0 0 1024 1024" version="1.1" xmlns="http://www.w3.org/2000/svg" p-id="1060" xmlns:xlink="http://www.w3.org/1999/xlink" width="500" height="500"><defs><style type="text/css"></style></defs><path d="M0 1024l363.391643-425.573259 62.181616 62.181616L0 1024z" fill="#29BE96" p-id="1061"></path><path d="M341.143175 450.103621a247.585515 232.753203 90 1 0 465.506407 0 247.585515 232.753203 90 1 0-465.506407 0Z" fill="#14AA82" p-id="1062"></path><path d="M585.30585 243.592201c113.524234 0 208.793315 105.537604 208.793314 226.477994s-95.269081 217.920891-208.793314 217.920891-205.370474-104.967131-205.370474-225.907521 91.84624-218.491365 205.370474-218.491364z" fill="#F1F0EC" p-id="1063"></path><path d="M606.41337 54.76546l341.143176 357.116434c22.248468 23.389415 22.248468 61.611142 0 85.000557l-36.510306 38.221727c-22.248468 23.389415-58.758774 23.959889-81.577716 0L487.754875 178.558217c-22.248468-23.389415-22.248468-61.611142 0-85.000557L524.835655 54.76546c22.248468-23.389415 58.758774-23.389415 81.577715 0zM338.290808 481.479666L558.493593 701.682451c20.537047 20.537047 20.537047 54.194986 0 74.732034l-11.40947 11.40947c-20.537047 20.537047-54.194986 20.537047-74.732034 0L252.149304 567.62117c-20.537047-20.537047-20.537047-54.194986 0-74.732034l11.40947-11.40947c20.537047-20.537047 54.194986-20.537047 74.732034 0z" fill="#EB4545" p-id="1064"></path></svg>