<?xml version="1.0" standalone="no"?><!DOCTYPE svg PUBLIC "-//W3C//DTD SVG 1.1//EN" "http://www.w3.org/Graphics/SVG/1.1/DTD/svg11.dtd"><svg t="1522207161923" class="icon" style="" viewBox="0 0 1024 1024" version="1.1" xmlns="http://www.w3.org/2000/svg" p-id="18055" xmlns:xlink="http://www.w3.org/1999/xlink" width="500" height="500"><defs><style type="text/css"></style></defs><path d="M668.16 164.864h-325.632c-19.456 0-35.328 15.872-35.328 35.328v88.064c0 16.384 11.776 30.72 27.136 34.304-0.512-1.536-0.512-3.584-0.512-5.12v-94.72c0-13.312 10.752-24.064 24.064-24.064h295.424c13.312 0 24.576 10.752 24.576 24.576V317.44c0 2.048-0.512 3.584-0.512 5.12 15.36-4.096 27.136-17.92 27.136-34.304v-88.064c-1.024-19.456-16.896-35.328-36.352-35.328z" fill="#4A5B6F" p-id="18056"></path><path d="M937.984 848.384H72.192c-23.04 0-41.472-18.432-41.472-41.472v-505.344c0-23.04 18.432-41.472 41.472-41.472h865.792c23.04 0 41.472 18.432 41.472 41.472v505.344c0 22.528-18.432 41.472-41.472 41.472z" fill="#55BFCD" p-id="18057"></path><path d="M969.728 444.416H40.96c-5.632 0-10.24-4.608-10.24-10.24s4.608-10.24 10.24-10.24h928.768c5.632 0 10.24 4.608 10.24 10.24-0.512 6.144-4.608 10.24-10.24 10.24z" fill="#4A5B6F" p-id="18058"></path><path d="M461.312 337.92a45.568 44.032 90 1 0 88.064 0 45.568 44.032 90 1 0-88.064 0Z" fill="#4A5B6F" p-id="18059"></path><path d="M30.72 434.688V455.68l780.8 392.704h126.976c23.04 0 41.472-18.432 41.472-41.472V434.688H30.72z" fill="#41A9B4" p-id="18060"></path><path d="M537.6 626.688c1.536 0 3.584 0 7.168 0.512 3.584 0 10.752 2.048 22.528 5.12 11.776 3.072 20.48 6.656 26.624 10.752 6.144 4.096 10.752 9.216 14.848 16.384 3.584 7.168 5.632 14.848 5.632 23.04s-3.584 16.384-9.728 24.064-13.312 12.8-22.016 16.384c-8.192 3.584-16.384 5.632-24.576 7.168-8.192 1.536-13.824 2.048-17.408 1.536h-3.072v22.016h-40.448v-23.04c-1.024 0-1.536 0-2.048-0.512l-19.456-3.072c-5.12-1.024-12.288-3.584-19.968-7.68-8.192-4.096-14.848-8.704-20.48-14.336-5.632-5.632-9.216-12.8-10.24-21.504l-2.56-11.264H476.16c0.512 3.072 1.024 5.632 1.536 8.704 0.512 3.072 2.56 5.632 5.12 8.192 3.072 2.56 7.168 4.096 12.288 5.632l2.048 0.512v-38.4c-2.56-0.512-4.608-0.512-5.12-1.024-1.024 0-3.584-0.512-7.68-1.024s-11.776-1.536-22.016-3.584c-10.24-2.048-18.432-5.12-24.064-8.192-5.632-3.584-9.728-7.168-12.288-11.264-2.56-4.096-4.608-8.192-5.12-11.776-0.512-3.584-0.512-9.728 0-18.432 0.512-8.704 4.608-16.384 11.264-23.04 7.168-6.656 14.848-11.776 24.064-15.872 9.216-3.584 17.408-5.632 25.088-6.144 7.68-0.512 12.288-1.024 13.312-1.536l2.048-0.512v-24.064h40.448v24.576c1.024 0 2.56 0 5.12 0.512 2.56 0 8.192 1.536 16.384 3.584 8.704 2.048 15.36 4.608 20.992 7.68 5.12 3.072 10.752 7.168 15.872 12.288s8.704 9.728 9.216 13.824l3.584 12.8h-53.76c-1.024-1.536-1.536-3.072-2.56-5.12-0.512-2.048-2.048-4.096-4.608-5.632-2.56-1.536-4.608-3.072-7.168-3.072l-3.584-0.512v35.328z m-40.448-37.888c-1.536 0.512-4.096 1.024-8.192 2.048s-7.68 2.56-11.264 5.12c-3.584 2.56-5.12 5.632-4.608 8.704 0 4.096 1.536 7.68 5.12 9.728 3.584 2.048 9.216 4.096 16.896 6.144l2.048 0.512V588.8z m40.448 107.008c0.512 0.512 1.536 0.512 3.072 0.512s4.608-1.024 9.216-2.048 8.192-3.072 9.728-5.12c1.536-2.048 2.56-5.12 2.56-9.216-0.512-3.072-1.536-5.12-3.072-7.168-1.536-2.048-4.096-4.096-8.192-5.632-3.584-1.536-7.168-3.072-10.24-3.584l-3.584-0.512v32.768z" fill="#4A5B6F" p-id="18061"></path></svg>